<svg width="50" height="50" viewBox="0 0 50 50" fill="none" xmlns="http://www.w3.org/2000/svg">
<rect width="50" height="50" rx="5" fill="#F43F5E"/>
<path d="M35 22.5C35 28.7413 28.0762 35.2412 25.7512 37.2487C25.5347 37.4116 25.271 37.4997 25 37.4997C24.729 37.4997 24.4653 37.4116 24.2488 37.2487C21.9238 35.2412 15 28.7413 15 22.5C15 19.8478 16.0536 17.3043 17.9289 15.4289C19.8043 13.5536 22.3478 12.5 25 12.5C27.6522 12.5 30.1957 13.5536 32.0711 15.4289C33.9464 17.3043 35 19.8478 35 22.5Z" stroke="white" stroke-width="1.5" stroke-linecap="round" stroke-linejoin="round"/>
<path d="M25 26.25C27.0711 26.25 28.75 24.5711 28.75 22.5C28.75 20.4289 27.0711 18.75 25 18.75C22.9289 18.75 21.25 20.4289 21.25 22.5C21.25 24.5711 22.9289 26.25 25 26.25Z" stroke="white" stroke-width="1.5" stroke-linecap="round" stroke-linejoin="round"/>
</svg>
