<svg width="50" height="50" viewBox="0 0 50 50" fill="none" xmlns="http://www.w3.org/2000/svg">
<rect width="50" height="50" rx="5" fill="#1982CD"/>
<path d="M18.75 25H35C35.3315 25 35.6495 25.1317 35.8839 25.3661C36.1183 25.6005 36.25 25.9185 36.25 26.25C36.25 27.9076 35.5915 29.4973 34.4194 30.6694C33.2473 31.8415 31.6576 32.5 30 32.5H29.2525C29.1409 32.5 29.0314 32.5299 28.9353 32.5865C28.8391 32.6431 28.7599 32.7244 28.7058 32.822C28.6518 32.9196 28.6248 33.0299 28.6277 33.1414C28.6306 33.2529 28.6634 33.3616 28.7225 33.4563L30.6525 36.5438C30.7116 36.6384 30.7444 36.7471 30.7473 36.8586C30.7502 36.9701 30.7232 37.0804 30.6692 37.178C30.6151 37.2756 30.5359 37.3569 30.4397 37.4135C30.3436 37.4701 30.2341 37.5 30.1225 37.5H16.7525C16.6409 37.5 16.5314 37.4701 16.4353 37.4135C16.3391 37.3569 16.2599 37.2756 16.2058 37.178C16.1518 37.0804 16.1248 36.9701 16.1277 36.8586C16.1306 36.7471 16.1634 36.6384 16.2225 36.5438L18.75 32.5M20 32.5C18.3424 32.5 16.7527 31.8415 15.5806 30.6694C14.4085 29.4973 13.75 27.9076 13.75 26.25V15C13.75 14.337 14.0134 13.7011 14.4822 13.2322C14.9511 12.7634 15.587 12.5 16.25 12.5H26.25C26.913 12.5 27.5489 12.7634 28.0178 13.2322C28.4866 13.7011 28.75 14.337 28.75 15V25" stroke="white" stroke-width="2" stroke-linecap="round" stroke-linejoin="round"/>
</svg>
